<svg width="1200" height="800" viewBox="0 0 1200 800" fill="none" xmlns="http://www.w3.org/2000/svg">
<rect width="1200" height="800" fill="#B31B1B"/>
<path d="M179.127 438.091C187.094 444.307 195.784 449.535 205.006 453.662L205.945 454.041L206.885 453.662C216.038 449.511 224.665 444.284 232.583 438.091C249.643 424.764 258.643 409.556 258.643 393.985V323.357H152.885V392.798C152.885 408.748 161.885 424.5 179.127 438.091ZM203.325 416.319C202.724 416.086 202.089 415.958 201.445 415.939H201.264C198.643 415.939 196.764 416.137 194.671 416.319C192.577 416.5 190.533 416.698 187.533 416.698H184.006V383.66H189.264C190.912 383.66 192.825 383.478 194.885 383.297C196.006 383.099 197.325 383.099 198.643 382.918C200.019 382.801 201.404 382.862 202.764 383.099C202.945 383.099 203.143 383.297 203.325 383.297V416.319ZM253.583 393.985C253.583 422.883 218.143 442.396 207.643 447.658V421.316L208.204 420.756C208.421 420.462 208.705 420.224 209.031 420.061C209.357 419.898 209.718 419.814 210.083 419.815C212.209 419.832 214.332 419.958 216.445 420.195C218.522 420.376 220.583 420.574 223.764 420.574H231.083V410.81H235.204V405.548H231.083V395.981H235.204V390.736H231.083V380.031H222.083C220.583 380.031 218.885 379.85 216.825 379.652C215.704 379.47 214.385 379.47 213.083 379.289C211.271 379.081 209.438 379.142 207.643 379.47H207.445V369.145H253.401L253.583 393.985ZM207.643 416.434V383.231C207.825 383.033 208.204 383.033 208.583 382.852C210.004 382.619 211.448 382.552 212.885 382.654C214.204 382.852 215.522 382.852 216.643 383.033C218.704 383.231 220.583 383.412 222.264 383.412H227.522V416.649H223.962C220.962 416.649 218.885 416.451 216.825 416.269C214.764 416.088 212.885 415.89 210.231 415.89C209.143 416.071 208.385 416.253 207.643 416.434ZM157.945 328.437H253.55V364.263H157.945V328.437ZM157.945 369.145H203.572V379.042C201.9 378.762 200.199 378.701 198.511 378.86C197.209 379.042 195.89 379.042 194.77 379.239C192.709 379.421 191.011 379.602 189.511 379.602H180.495V389.186H175.945V394.431H180.495V403.997H175.945V409.259H180.495V419.947H182.143C184.021 420.062 185.903 420.062 187.781 419.947C190.219 419.952 192.657 419.831 195.083 419.585C197.14 419.348 199.209 419.222 201.281 419.205C201.617 419.184 201.952 419.262 202.245 419.429C202.538 419.596 202.775 419.845 202.929 420.145L203.127 420.327V446.718C192.429 441.769 157.929 422.521 157.929 392.682L157.945 369.145Z" fill="white"/>
<path d="M197.885 332H171.067V350.011C171.269 351.205 171.75 352.334 172.468 353.308C173.187 354.282 174.124 355.074 175.204 355.62C177.847 357.471 180.6 359.162 183.446 360.683L184.385 361.244L185.325 360.683C185.44 360.568 190.764 357.698 193.946 355.62C197.704 353.178 197.885 350.671 197.885 349.995V332ZM174.825 335.826H193.946V340.775H174.825V335.826ZM194.143 349.896C194.143 350.836 192.825 351.776 191.885 352.535C189.643 354.036 186.067 356.098 184.385 357.038C182.885 356.098 179.44 354.217 177.264 352.535C175.764 351.595 174.825 350.473 174.825 349.715V344.271H193.946C194.143 347.191 194.143 349.451 194.143 349.814V349.896Z" fill="white"/>
<path d="M243.265 331.241H216.084V349.814C216.265 351.892 217.584 353.756 220.205 355.455C223.501 357.698 228.447 360.518 228.644 360.7L229.584 361.261L230.523 360.7C230.705 360.518 236.144 357.698 239.326 355.455C243.265 352.832 243.265 350.506 243.265 349.814V331.241ZM239.523 349.385C239.523 350.325 238.205 351.447 237.265 352.007C234.826 353.508 231.265 355.57 229.584 356.51C227.936 355.57 224.639 353.508 222.265 352.007C221.523 351.447 219.826 350.358 219.826 349.187V348.247L229.205 341.501L239.523 348.445V349.385ZM229.205 336.8L219.826 343.562V334.804H239.705V343.81L229.205 336.8Z" fill="white"/>
<path d="M212.522 390.736L214.385 390.917C215.444 391.063 216.513 391.123 217.583 391.099L223.022 391.297V387.536L217.583 387.355C216.824 387.355 215.934 387.157 214.764 387.157L212.885 386.959H211.583L211.813 390.736C211.913 390.654 212.039 390.61 212.168 390.61C212.297 390.61 212.422 390.654 212.522 390.736V390.736Z" fill="white"/>
<path d="M217.583 397.68C216.824 397.68 215.934 397.482 214.764 397.482C214.203 397.482 213.445 397.301 212.885 397.301H211.583V401.045H212.522C213.264 401.045 213.824 401.243 214.385 401.243C215.378 401.388 216.381 401.449 217.385 401.424H223.022V397.68H221.522C220.21 397.771 218.894 397.771 217.583 397.68V397.68Z" fill="white"/>
<path d="M217.583 408.187C216.824 408.187 215.934 407.989 214.764 407.989C214.203 407.989 213.445 407.807 212.885 407.807H211.583L211.813 411.552H212.753C213.495 411.552 214.072 411.75 214.632 411.75C215.626 411.89 216.629 411.951 217.632 411.931H219.132C220.448 411.871 221.768 411.937 223.072 412.129V408.401C221.756 408.412 220.441 408.351 219.132 408.22L217.583 408.187Z" fill="white"/>
<path d="M193.946 391.099C194.886 391.099 195.825 390.917 197.144 390.917C197.705 390.917 198.265 390.736 199.007 390.736H199.946V386.959H198.628C197.869 386.959 197.309 387.14 196.748 387.14C195.817 387.293 194.873 387.359 193.93 387.338L188.49 387.52V391.28L193.946 391.099Z" fill="white"/>
<path d="M196.764 397.482C195.833 397.635 194.889 397.701 193.945 397.68L188.506 397.862V401.606L193.945 401.424C194.885 401.424 195.825 401.243 197.143 401.243L198.792 401.045H199.55L199.731 397.301H198.412L196.764 397.482Z" fill="white"/>
<path d="M196.764 407.808C195.771 407.953 194.767 408.014 193.764 407.989C192.116 407.989 189.264 408.187 188.506 408.187V411.931C189.264 411.931 192.066 411.75 193.945 411.75C194.885 411.75 195.825 411.552 197.143 411.552L199.006 411.37H199.764V407.626H198.445L196.764 407.808Z" fill="white"/>
<path d="M110.506 379.091C115.187 379.091 118.006 376.089 118.368 370.844C118.39 369.653 118.329 368.463 118.187 367.281V366.902H114.247L114.627 367.644C114.879 368.624 115.006 369.633 115.006 370.646C114.971 371.261 114.809 371.863 114.529 372.412C114.249 372.962 113.857 373.447 113.38 373.836C112.902 374.226 112.348 374.511 111.754 374.675C111.16 374.838 110.538 374.876 109.929 374.786C109.307 374.807 108.688 374.699 108.109 374.47C107.531 374.241 107.005 373.895 106.566 373.454C106.127 373.013 105.783 372.486 105.557 371.907C105.33 371.327 105.224 370.707 105.247 370.085C105.205 369.066 105.539 368.068 106.187 367.281L106.747 366.522L103.022 365.961L102.841 366.341C102.36 367.477 102.043 368.677 101.901 369.903C101.522 375.347 104.522 378.909 109.962 379.091H110.506Z" fill="white"/>
<path d="M111.265 360.7C112.235 361.001 113.25 361.13 114.265 361.079C115.941 361.11 117.578 360.57 118.907 359.548C120.237 358.526 121.18 357.083 121.583 355.455C122.161 353.454 121.96 351.309 121.023 349.451C119.769 347.5 117.827 346.092 115.583 345.509C114.675 345.208 113.72 345.08 112.765 345.129C111.088 345.099 109.452 345.638 108.122 346.66C106.792 347.682 105.849 349.125 105.446 350.754C103.929 355.455 106.188 359.199 111.265 360.7ZM108.627 351.892C108.828 351.125 109.299 350.456 109.953 350.007C110.607 349.559 111.4 349.361 112.188 349.451C112.885 349.498 113.576 349.62 114.248 349.814C115.73 350.151 117.023 351.05 117.858 352.321C118.075 352.686 118.205 353.095 118.239 353.518C118.274 353.941 118.211 354.367 118.056 354.762C117.854 355.532 117.381 356.204 116.724 356.652C116.067 357.101 115.269 357.297 114.479 357.203C113.778 357.172 113.085 357.044 112.418 356.824C110.127 356.015 107.869 354.333 108.627 351.892Z" fill="white"/>
<path d="M127.368 339.686L121.945 336.684L122.127 336.305C122.687 335.364 123.066 335.364 123.775 335.562L129.214 336.305L131.275 332.363L124.154 331.62H122.802C122.817 330.846 122.615 330.084 122.219 329.419C121.823 328.754 121.248 328.214 120.561 327.86C119.86 327.504 119.088 327.312 118.302 327.299C115.682 327.299 114.363 329.938 113.061 332.363L111.264 335.942L125.522 343.628L127.368 339.686ZM118.929 334.622L118.747 335.002L116.209 333.682L116.39 333.303C116.951 332.181 117.709 331.059 118.83 331.653C119.164 331.801 119.433 332.065 119.588 332.396C119.658 333.195 119.422 333.99 118.929 334.622Z" fill="white"/>
<path d="M136.187 325.435L128.868 319.415L139.385 321.856L142.187 318.293L129.808 307.968L127.187 310.986L134.687 317.171L124.187 314.73L121.187 318.293L133.747 328.618L136.187 325.435Z" fill="white"/>
<path d="M154.386 307.968L152.128 305.345L147.628 308.908L145.567 306.467L149.688 303.102L147.446 300.463L143.325 303.844L141.809 301.782L146.325 298.219L144.067 295.399L136.369 301.601L146.507 314.169L154.386 307.968Z" fill="white"/>
<path d="M167.688 299.902L166.006 296.9L160.946 299.72L154.748 288.653L151.188 290.714L159.067 304.784L167.688 299.902Z" fill="white"/>
<path d="M181.386 294.657L180.067 291.457L174.825 293.337L170.506 281.511L166.567 282.83L172.006 298.038L181.386 294.657Z" fill="white"/>
<path d="M197.704 292.018H198.627C199.548 292.024 200.46 291.845 201.31 291.491C202.16 291.137 202.929 290.615 203.573 289.956C204.556 288.606 204.964 286.922 204.71 285.271L203.952 275.127L199.831 275.325L200.573 284.513C200.77 287.713 199.452 288.273 198.331 288.455H197.952C197.012 288.455 195.71 288.075 195.331 284.892L194.573 275.705L190.452 276.068L191.21 286.212C191.886 289.956 193.946 292.018 197.704 292.018Z" fill="white"/>
<path d="M216.265 282.451L219.644 292.397L224.325 293.156L226.386 277.008L222.446 276.447L221.144 286.014L217.765 275.886L213.265 275.325L211.023 291.275L214.946 291.836L216.265 282.451Z" fill="white"/>
<path d="M238.583 280.57L234.643 279.267L229.764 294.657L233.704 295.96L238.583 280.57Z" fill="white"/>
<path d="M258.841 289.576L255.264 287.712L247.402 295.778L249.083 284.71L245.143 282.632L242.704 299.72L246.841 301.601L258.841 289.576Z" fill="white"/>
<path d="M262.963 312.85L265.023 310.046L260.523 306.466L262.402 304.042L266.523 307.225L268.782 304.405L264.644 301.221L266.144 299.159L270.644 302.722L272.902 299.902L265.023 293.898L255.084 306.664L262.963 312.85Z" fill="white"/>
<path d="M269.703 319.612L274.401 315.489L274.583 315.852C275.143 316.61 275.143 316.792 274.78 317.732L272.143 322.68L275.143 325.979L278.341 319.596C278.6 319.206 278.732 318.745 278.72 318.276C279.435 318.566 280.217 318.65 280.977 318.519C281.737 318.388 282.445 318.047 283.022 317.534C286.583 314.532 283.78 311.332 281.72 308.891L279.083 305.889L266.901 316.594L269.703 319.612ZM279.28 311.167L279.462 311.547C280.01 312.123 280.397 312.834 280.583 313.608C280.583 313.971 280.401 314.169 280.022 314.351C279.951 314.481 279.842 314.587 279.71 314.654C279.577 314.722 279.428 314.748 279.28 314.73C278.89 314.66 278.519 314.506 278.195 314.278C277.87 314.05 277.599 313.754 277.401 313.41L277.22 313.048L279.28 311.167Z" fill="white"/>
<path d="M284.72 332.528C283.962 333.088 282.841 332.148 282.462 331.406C281.911 330.433 281.654 329.322 281.72 328.206V327.266L277.962 328.915L278.143 329.658C278.431 330.812 278.874 331.922 279.462 332.956C279.911 333.902 280.608 334.709 281.479 335.29C282.35 335.871 283.362 336.204 284.407 336.255C285.337 336.267 286.249 336.003 287.028 335.497C289.847 333.847 289.468 331.192 289.088 329.113C288.907 327.81 288.726 326.87 289.286 326.491C289.512 326.363 289.769 326.301 290.028 326.309C290.786 326.309 291.347 327.051 291.528 327.249C292.036 328.041 292.358 328.938 292.468 329.872L292.583 330.878L295.962 329.377V329.014C295.68 327.741 295.172 326.529 294.462 325.435C292.814 322.433 289.781 321.509 287.16 323.192C284.539 324.874 284.72 327.513 285.083 329.377C285.446 331.241 285.462 332.181 284.72 332.528Z" fill="white"/>
<path d="M300.027 337.384L285.1 343.476L286.656 347.294L301.583 341.202L300.027 337.384Z" fill="white"/>
<path d="M301.601 352.634L289.403 355.636L290.342 359.578L302.721 356.576L303.661 360.7L307.024 359.958L304.024 347.57L300.661 348.51L301.601 352.634Z" fill="white"/>
<path d="M292.221 372.147L292.402 376.287L298.781 375.908L308.902 381.153L308.721 376.65L302.721 373.846L308.342 370.283L307.962 365.401L298.6 371.965L292.221 372.147Z" fill="white"/>
<path d="M113.687 409.308L117.066 408.368L115.748 403.486L118.187 402.744L119.687 407.989L123.066 406.867L120.445 397.861L104.868 402.364L105.989 406.307L112.368 404.426L113.687 409.308Z" fill="white"/>
<path d="M128.128 422.817C128.684 420.815 128.484 418.678 127.567 416.814C127.022 415.471 126.086 414.324 124.881 413.521C123.675 412.718 122.257 412.296 120.809 412.311C119.308 412.353 117.837 412.736 116.507 413.432C115.427 413.892 114.454 414.569 113.646 415.42C112.838 416.271 112.213 417.278 111.809 418.38C111.253 420.383 111.452 422.52 112.369 424.384C112.945 425.705 113.888 426.832 115.087 427.63C116.285 428.429 117.688 428.865 119.128 428.887C120.633 428.843 122.109 428.46 123.446 427.766C124.525 427.308 125.498 426.632 126.303 425.781C127.109 424.929 127.73 423.92 128.128 422.817V422.817ZM121.749 423.758C120.831 424.265 119.796 424.521 118.749 424.5C118.113 424.563 117.475 424.414 116.932 424.077C116.39 423.74 115.974 423.234 115.748 422.636C115.537 422.269 115.411 421.859 115.379 421.436C115.348 421.014 115.412 420.589 115.567 420.195C116.148 418.848 117.221 417.775 118.567 417.193C119.445 416.766 120.396 416.508 121.369 416.434C122.018 416.349 122.677 416.487 123.237 416.826C123.797 417.164 124.226 417.683 124.452 418.298C124.666 418.664 124.795 419.073 124.829 419.496C124.864 419.919 124.802 420.344 124.65 420.739C124.388 421.409 123.998 422.02 123.5 422.538C123.002 423.056 122.407 423.47 121.749 423.758V423.758Z" fill="white"/>
<path d="M139.385 435.386L132.067 441.208C130.187 442.709 128.77 442.858 127.567 441.588C127.22 441.106 127.025 440.532 127.006 439.938C127.339 438.892 127.99 437.975 128.869 437.316L136.187 431.493L133.567 428.194L125.506 434.578C124.742 435.066 124.105 435.729 123.646 436.512C123.188 437.295 122.921 438.175 122.869 439.081C122.943 440.811 123.606 442.464 124.748 443.765C125.278 444.645 126.018 445.379 126.901 445.903C127.784 446.427 128.783 446.724 129.808 446.767C131.278 446.713 132.678 446.127 133.748 445.118L141.808 438.52L139.385 435.386Z" fill="white"/>
<path d="M153.067 448.532L147.067 456.037L149.325 445.53L145.748 442.528L135.446 455.097L138.627 457.719L144.627 450.214L142.385 460.721L145.946 463.723L156.264 451.154L153.067 448.532Z" fill="white"/>
<path d="M165.067 456.235L160.946 454.173L153.627 468.606L157.748 470.667C159.433 471.551 161.288 472.063 163.188 472.168C164.61 472.159 165.996 471.725 167.17 470.923C168.345 470.121 169.254 468.987 169.781 467.665C172.254 462.833 170.506 459.039 165.067 456.235ZM165.825 465.802C165.504 466.583 164.959 467.251 164.257 467.721C163.555 468.191 162.73 468.442 161.886 468.441C161.163 468.428 160.455 468.235 159.825 467.88L158.886 467.303L163.006 459.055L164.012 459.534C165.034 460.043 165.833 460.912 166.254 461.975C166.6 463.253 166.447 464.616 165.825 465.785V465.802Z" fill="white"/>
<path d="M174.066 477.611L183.643 480.234L184.566 476.869L178.945 475.368L179.703 472.366L184.945 473.669L185.884 470.288L180.626 468.985L181.203 466.346L187.005 467.847L187.764 464.482L178.203 462.041L174.066 477.611Z" fill="white"/>
<path d="M197.886 465.785L193.204 465.604L192.265 481.735L196.946 481.933H198.083C203.507 481.933 206.325 479.31 206.704 474.23C206.848 473.17 206.777 472.092 206.493 471.06C206.21 470.028 205.721 469.064 205.056 468.226C203.008 466.628 200.482 465.768 197.886 465.785ZM197.704 478.552H196.583L197.144 469.43H198.265C198.862 469.458 199.448 469.608 199.984 469.872C200.521 470.136 200.998 470.508 201.385 470.965C201.771 471.422 202.06 471.953 202.232 472.526C202.404 473.099 202.457 473.702 202.386 474.296C202.365 474.886 202.226 475.465 201.978 476C201.73 476.535 201.378 477.015 200.941 477.411C200.505 477.808 199.994 478.113 199.438 478.309C198.882 478.505 198.293 478.587 197.704 478.552V478.552Z" fill="white"/>
<path d="M220.962 464.482L218.144 481.554L222.462 480.614L223.023 477.051L228.265 475.929L230.325 479.113L234.825 478.172L225.265 463.723L220.962 464.482ZM223.583 473.488L224.144 469.167L226.386 472.729L223.583 473.488Z" fill="white"/>
<path d="M236.325 472.927L237.825 476.869L241.584 475.368L240.265 471.608L236.325 472.927Z" fill="white"/>
<path d="M244.204 456.598L240.083 458.841L247.764 473.109L251.901 470.865C257.341 467.863 258.643 464.103 256.204 459.418C253.764 454.734 249.726 453.596 244.204 456.598ZM250.797 467.484L249.874 468.045L245.555 459.979L246.495 459.418C247.11 459.028 247.827 458.828 248.555 458.841C249.369 458.863 250.163 459.1 250.855 459.529C251.547 459.958 252.113 460.563 252.495 461.282C252.804 461.799 253.005 462.374 253.085 462.971C253.165 463.568 253.123 464.175 252.961 464.755C252.799 465.336 252.521 465.877 252.143 466.346C251.766 466.815 251.296 467.202 250.764 467.484H250.797Z" fill="white"/>
<path d="M259.402 461.661L261.644 465.043L265.023 462.602L262.781 459.22L259.402 461.661Z" fill="white"/>
<path d="M265.781 440.829L265.022 447.213L268.583 447.773L268.962 445.151L276.643 452.837L279.66 450.033L268.22 438.388L265.781 440.829Z" fill="white"/>
<path d="M287.721 432.384C287.077 431.922 286.328 431.629 285.542 431.531C284.756 431.433 283.958 431.534 283.221 431.823C283.226 431.095 283.058 430.376 282.732 429.725C282.405 429.074 281.929 428.51 281.342 428.079C279.281 426.578 276.644 427.518 274.583 430.141C272.523 432.764 272.935 435.386 275.144 437.085C275.726 437.446 276.377 437.683 277.055 437.779C277.733 437.876 278.424 437.83 279.083 437.646C278.956 438.392 279.044 439.158 279.336 439.856C279.628 440.554 280.112 441.155 280.732 441.588C281.525 442.224 282.518 442.557 283.534 442.528C284.483 442.457 285.401 442.165 286.217 441.675C287.033 441.186 287.723 440.512 288.232 439.708C289.301 438.461 289.839 436.844 289.732 435.205C289.381 434.073 288.676 433.084 287.721 432.384V432.384ZM280.023 433.522C279.549 433.912 278.98 434.168 278.375 434.265C278.109 434.291 277.841 434.227 277.616 434.083C276.875 433.522 277.254 432.582 277.616 432.021C277.704 431.848 277.839 431.702 278.005 431.6C278.171 431.498 278.361 431.444 278.556 431.444C278.887 431.521 279.204 431.649 279.495 431.823C279.751 432.015 279.939 432.282 280.034 432.587C280.129 432.892 280.125 433.22 280.023 433.522V433.522ZM285.66 438.091C285.404 438.432 285.025 438.661 284.604 438.728C284.183 438.796 283.752 438.698 283.402 438.454C283.081 438.187 282.84 437.836 282.709 437.439C282.578 437.042 282.561 436.617 282.66 436.211C283.781 435.452 284.721 435.271 285.462 435.831C285.635 435.919 285.78 436.054 285.879 436.22C285.978 436.387 286.028 436.578 286.023 436.772C285.988 437.231 285.864 437.679 285.66 438.091V438.091Z" fill="white"/>
<path d="M295.023 416.649C294.454 416.304 293.819 416.083 293.158 416.001C292.498 415.919 291.828 415.977 291.192 416.172C290.556 416.366 289.968 416.693 289.466 417.13C288.965 417.568 288.561 418.106 288.281 418.71C287.893 419.389 287.759 420.185 287.902 420.954C287.305 420.562 286.864 419.971 286.659 419.286C286.454 418.601 286.498 417.866 286.781 417.209C287.174 416.504 287.681 415.869 288.281 415.329L288.842 414.95L285.842 412.888L285.463 413.267C284.627 414.089 283.931 415.042 283.402 416.088C283.026 416.802 282.798 417.586 282.733 418.391C282.668 419.196 282.766 420.006 283.023 420.772C284.139 423.24 286.156 425.188 288.661 426.215C290.095 427.019 291.699 427.471 293.342 427.535C294.335 427.56 295.313 427.286 296.148 426.748C296.983 426.209 297.636 425.432 298.023 424.516C299.523 421.135 298.402 418.298 295.023 416.649ZM295.023 422.653C294.917 422.902 294.733 423.11 294.497 423.244C294.262 423.378 293.989 423.431 293.721 423.395C293.26 423.362 292.81 423.233 292.402 423.015C291.785 422.738 291.264 422.285 290.902 421.712C290.721 421.333 290.902 421.152 290.902 420.772C290.902 420.393 291.463 420.013 292.221 420.013C292.735 420.077 293.239 420.204 293.721 420.393C294.019 420.508 294.289 420.685 294.514 420.913C294.738 421.14 294.912 421.413 295.023 421.712C295.221 422.075 295.023 422.438 295.023 422.636V422.653Z" fill="white"/>
<path d="M300.825 400.154C300.148 399.908 299.427 399.807 298.709 399.857C297.99 399.907 297.29 400.108 296.653 400.445C296.017 400.782 295.458 401.249 295.012 401.815C294.567 402.381 294.245 403.035 294.067 403.733C294.067 404.096 293.886 404.294 293.886 404.476L292.007 403.915L293.655 398.29L290.457 397.35L287.721 406.752L296.721 409.556V408.814C296.749 407.928 296.876 407.048 297.1 406.191C297.281 405.432 298.221 403.552 299.902 403.931C301.584 404.311 301.402 406.554 301.221 407.115C300.875 408.074 300.368 408.966 299.721 409.754L299.161 410.315L302.902 411.618L303.1 411.255C303.661 410.117 304.221 408.814 304.6 407.956C304.902 407.141 305.04 406.273 305.006 405.404C304.972 404.535 304.767 403.682 304.402 402.892C303.518 401.635 302.269 400.68 300.825 400.154V400.154Z" fill="white"/>
<path d="M123.627 378.53C123.627 394.675 128.411 410.456 137.374 423.88C146.337 437.304 159.076 447.766 173.982 453.945C188.887 460.124 205.289 461.742 221.113 458.593C236.936 455.445 251.472 447.672 262.882 436.257C274.291 424.843 282.062 410.299 285.211 394.466C288.361 378.632 286.748 362.219 280.576 347.303C274.404 332.387 263.951 319.637 250.537 310.665C237.124 301.693 221.354 296.903 205.22 296.9C183.598 296.948 162.875 305.563 147.584 320.861C132.293 336.159 123.679 356.894 123.627 378.53V378.53ZM205.385 299.539C220.967 299.536 236.199 304.156 249.156 312.817C262.113 321.477 272.212 333.788 278.177 348.192C284.141 362.596 285.703 378.447 282.664 393.74C279.624 409.032 272.122 423.079 261.104 434.104C250.086 445.129 236.048 452.637 220.766 455.678C205.483 458.719 189.643 457.156 175.248 451.188C160.853 445.22 148.55 435.114 139.896 422.149C131.241 409.183 126.623 393.941 126.627 378.349C126.662 357.458 134.971 337.433 149.733 322.66C164.496 307.888 184.508 299.574 205.385 299.539V299.539Z" fill="white"/>
<path d="M205.386 266.699C183.278 266.699 161.667 273.259 143.285 285.55C124.903 297.84 110.577 315.31 102.117 335.748C93.6579 356.187 91.4454 378.676 95.7596 400.373C100.074 422.07 110.721 441.999 126.355 457.641C141.988 473.283 161.906 483.934 183.589 488.248C205.273 492.561 227.747 490.344 248.171 481.876C268.595 473.408 286.051 459.07 298.331 440.674C310.611 422.279 317.164 400.652 317.16 378.53C317.152 348.871 305.372 320.428 284.412 299.457C263.451 278.486 235.026 266.703 205.386 266.699V266.699ZM205.386 487.376C183.869 487.376 162.835 480.992 144.944 469.03C127.054 457.068 113.11 440.066 104.875 420.174C96.6413 400.282 94.4868 378.393 98.6846 357.276C102.882 336.158 113.244 316.761 128.458 301.536C143.673 286.312 163.058 275.943 184.161 271.743C205.265 267.542 227.139 269.698 247.018 277.938C266.897 286.177 283.888 300.131 295.842 318.033C307.796 335.935 314.177 356.983 314.177 378.514C314.177 392.81 311.363 406.966 305.896 420.174C300.428 433.381 292.415 445.382 282.313 455.491C272.21 465.6 260.217 473.619 247.018 479.09C233.819 484.56 219.672 487.376 205.386 487.376V487.376Z" fill="white"/>
<path d="M370.221 269.536V481.933" stroke="white" stroke-width="3.58556" stroke-miterlimit="10"/>
<path d="M444.889 435.09H454.185L473.53 386.898H462.183L449.674 420.598L437.165 386.898H425.544L444.889 435.09ZM492.375 435.568C499.006 435.568 503.928 432.971 507.346 428.733L501.399 423.469C498.528 426.135 495.998 427.229 492.512 427.229C487.864 427.229 484.583 424.768 483.557 420.051H509.054C509.123 419.094 509.191 418.137 509.191 417.317C509.191 406.927 503.586 397.425 491.35 397.425C480.686 397.425 473.236 406.038 473.236 416.497V416.634C473.236 427.844 481.37 435.568 492.375 435.568ZM483.421 413.557C484.241 408.841 487.044 405.765 491.35 405.765C495.725 405.765 498.459 408.909 499.074 413.557H483.421ZM529.307 435.363C532.793 435.363 535.323 434.543 537.51 433.244V424.905C536.006 425.725 534.297 426.203 532.383 426.203C530.059 426.203 529.034 425.041 529.034 422.649V406.995H537.647V398.109H529.034V388.744H518.644V398.109H514.269V406.995H518.644V424.358C518.644 432.834 522.95 435.363 529.307 435.363ZM561.667 435.568C568.297 435.568 573.219 432.971 576.637 428.733L570.69 423.469C567.819 426.135 565.29 427.229 561.803 427.229C557.155 427.229 553.874 424.768 552.849 420.051H578.346C578.414 419.094 578.482 418.137 578.482 417.317C578.482 406.927 572.877 397.425 560.641 397.425C549.978 397.425 542.527 406.038 542.527 416.497V416.634C542.527 427.844 550.661 435.568 561.667 435.568ZM552.712 413.557C553.532 408.841 556.335 405.765 560.641 405.765C565.016 405.765 567.75 408.909 568.366 413.557H552.712ZM586.226 434.748H596.616V421.213C596.616 412.464 600.854 408.294 607.758 408.294H608.305V397.425C602.153 397.152 598.735 400.433 596.616 405.491V398.109H586.226V434.748ZM615.002 394.076H625.939V384.848H615.002V394.076ZM615.275 434.748H625.666V398.109H615.275V434.748ZM635.424 434.748H645.814V414.309C645.814 409.388 648.344 406.859 652.308 406.859C656.273 406.859 658.597 409.388 658.597 414.309V434.748H668.987V411.028C668.987 402.62 664.407 397.425 656.546 397.425C651.283 397.425 648.207 400.228 645.814 403.304V398.109H635.424V434.748ZM688.404 435.432C693.462 435.432 696.948 433.586 699.478 430.783V434.748H709.526V413.489C709.526 408.567 708.296 404.534 705.561 401.8C702.964 399.203 698.862 397.699 693.189 397.699C686.968 397.699 683.004 398.861 678.971 400.638L681.568 408.567C684.918 407.337 687.72 406.585 691.685 406.585C696.88 406.585 699.546 408.978 699.546 413.284V413.899C696.948 413.011 694.283 412.395 690.591 412.395C681.91 412.395 675.826 416.087 675.826 424.084V424.221C675.826 431.467 681.5 435.432 688.404 435.432ZM691.548 428.254C688.199 428.254 685.875 426.614 685.875 423.811V423.674C685.875 420.393 688.609 418.616 693.052 418.616C695.581 418.616 697.905 419.163 699.683 419.983V421.829C699.683 425.588 696.402 428.254 691.548 428.254ZM718.467 434.748H728.857V421.213C728.857 412.464 733.095 408.294 739.999 408.294H740.546V397.425C734.394 397.152 730.976 400.433 728.857 405.491V398.109H718.467V434.748ZM755.788 445.89C762.008 445.89 765.016 443.088 767.818 435.637L781.9 398.109H771.1L763.102 423.059L754.762 398.109H743.757L758.112 434.885C757.223 436.73 756.266 437.277 754.489 437.277C753.122 437.277 751.413 436.662 750.046 435.842L746.559 443.361C749.225 444.933 752.028 445.89 755.788 445.89ZM809.613 434.748H819.935V403.714L833.264 423.948H833.538L847.004 403.509V434.748H857.462V386.898H846.115L833.538 407.132L820.96 386.898H809.613V434.748ZM885.226 435.568C891.857 435.568 896.779 432.971 900.197 428.733L894.25 423.469C891.379 426.135 888.849 427.229 885.363 427.229C880.715 427.229 877.434 424.768 876.408 420.051H901.905C901.974 419.094 902.042 418.137 902.042 417.317C902.042 406.927 896.437 397.425 884.201 397.425C873.537 397.425 866.087 406.038 866.087 416.497V416.634C866.087 427.844 874.221 435.568 885.226 435.568ZM876.272 413.557C877.092 408.841 879.895 405.765 884.201 405.765C888.576 405.765 891.31 408.909 891.925 413.557H876.272ZM924.824 435.432C930.224 435.432 933.711 432.902 936.24 429.485V434.748H946.63V384.848H936.24V402.894C933.779 399.954 930.361 397.425 924.824 397.425C916.143 397.425 908.145 404.124 908.145 416.36V416.497C908.145 428.733 916.28 435.432 924.824 435.432ZM927.49 426.614C922.637 426.614 918.535 422.581 918.535 416.497V416.36C918.535 410.208 922.637 406.243 927.49 406.243C932.343 406.243 936.376 410.276 936.376 416.36V416.497C936.376 422.581 932.343 426.614 927.49 426.614ZM956.118 394.076H967.055V384.848H956.118V394.076ZM956.392 434.748H966.782V398.109H956.392V434.748ZM993.835 435.568C1001.15 435.568 1005.25 432.766 1008.8 428.869L1002.72 422.717C1000.19 425.11 997.799 426.614 994.313 426.614C988.639 426.614 985.017 422.102 985.017 416.497V416.36C985.017 410.96 988.708 406.38 993.903 406.38C997.594 406.38 999.918 407.952 1002.24 410.413L1008.6 403.577C1005.18 399.749 1000.88 397.425 993.971 397.425C982.761 397.425 974.763 406.038 974.763 416.497V416.634C974.763 427.092 982.829 435.568 993.835 435.568ZM1015.8 394.076H1026.73V384.848H1015.8V394.076ZM1016.07 434.748H1026.46V398.109H1016.07V434.748ZM1036.22 434.748H1046.61V414.309C1046.61 409.388 1049.14 406.859 1053.1 406.859C1057.07 406.859 1059.39 409.388 1059.39 414.309V434.748H1069.78V411.028C1069.78 402.62 1065.2 397.425 1057.34 397.425C1052.08 397.425 1049 400.228 1046.61 403.304V398.109H1036.22V434.748ZM1096.17 435.568C1102.8 435.568 1107.72 432.971 1111.14 428.733L1105.19 423.469C1102.32 426.135 1099.79 427.229 1096.31 427.229C1091.66 427.229 1088.38 424.768 1087.35 420.051H1112.85C1112.92 419.094 1112.99 418.137 1112.99 417.317C1112.99 406.927 1107.38 397.425 1095.15 397.425C1084.48 397.425 1077.03 406.038 1077.03 416.497V416.634C1077.03 427.844 1085.17 435.568 1096.17 435.568ZM1087.22 413.557C1088.04 408.841 1090.84 405.765 1095.15 405.765C1099.52 405.765 1102.25 408.909 1102.87 413.557H1087.22Z" fill="white"/>
<path d="M452.682 363.191C461.158 363.191 466.626 359.841 471.685 354.851L469.292 352.527C464.439 357.312 459.722 359.978 452.818 359.978C441.403 359.978 432.585 350.545 432.585 338.445V338.309C432.585 326.278 441.266 316.913 452.75 316.913C459.927 316.913 464.712 319.921 468.882 323.954L471.411 321.356C466.49 316.845 461.363 313.7 452.818 313.7C439.01 313.7 428.893 324.911 428.893 338.445V338.582C428.893 352.322 439.01 363.191 452.682 363.191ZM495.508 363.191C505.898 363.191 513.486 354.714 513.486 344.939V344.803C513.486 335.028 505.967 326.688 495.645 326.688C485.255 326.688 477.667 335.164 477.667 344.939V345.076C477.667 354.851 485.186 363.191 495.508 363.191ZM495.645 360.046C487.579 360.046 481.29 353.347 481.29 344.939V344.803C481.29 336.6 487.237 329.833 495.508 329.833C503.574 329.833 509.863 336.531 509.863 344.939V345.076C509.863 353.279 503.916 360.046 495.645 360.046ZM524.262 362.37H527.612V312.47H524.262V362.37ZM541.285 362.37H544.634V312.47H541.285V362.37ZM572.525 363.191C579.224 363.191 583.394 360.456 586.949 356.628L584.624 354.578C581.753 357.654 578.062 360.046 572.662 360.046C565.826 360.046 559.606 354.988 558.991 346.306H587.906C587.974 345.76 587.974 345.555 587.974 344.939C587.974 334.617 581.753 326.688 571.978 326.688C562.545 326.688 555.436 334.754 555.436 344.871V345.008C555.436 355.876 563.365 363.191 572.525 363.191ZM558.991 343.299C559.606 335.574 564.938 329.764 571.842 329.764C579.839 329.764 583.873 336.258 584.351 343.299H558.991ZM613.06 373.444C618.187 373.444 622.698 371.804 625.706 368.796C628.508 365.993 630.149 362.029 630.149 356.97V327.508H626.799V334.481C623.928 330.379 619.212 326.688 612.239 326.688C603.832 326.688 595.492 333.182 595.492 343.23V343.367C595.492 353.347 603.832 359.773 612.239 359.773C619.144 359.773 623.792 356.013 626.799 351.707V356.765C626.799 365.72 621.126 370.3 613.128 370.3C608.001 370.3 603.216 368.591 599.047 365.378L597.064 368.112C601.849 371.667 607.249 373.444 613.06 373.444ZM612.581 356.56C605.404 356.56 599.115 351.091 599.115 343.23V343.094C599.115 334.959 605.267 329.901 612.581 329.901C619.827 329.901 627.005 335.096 627.005 343.162V343.299C627.005 351.228 619.827 356.56 612.581 356.56ZM657.571 363.191C664.27 363.191 668.439 360.456 671.994 356.628L669.67 354.578C666.799 357.654 663.108 360.046 657.707 360.046C650.872 360.046 644.651 354.988 644.036 346.306H672.951C673.019 345.76 673.019 345.555 673.019 344.939C673.019 334.617 666.799 326.688 657.024 326.688C647.591 326.688 640.482 334.754 640.482 344.871V345.008C640.482 355.876 648.411 363.191 657.571 363.191ZM644.036 343.299C644.651 335.574 649.983 329.764 656.887 329.764C664.885 329.764 668.918 336.258 669.396 343.299H644.036ZM718.736 363.191C729.126 363.191 736.713 354.714 736.713 344.939V344.803C736.713 335.028 729.194 326.688 718.872 326.688C708.482 326.688 700.894 335.164 700.894 344.939V345.076C700.894 354.851 708.414 363.191 718.736 363.191ZM718.872 360.046C710.806 360.046 704.517 353.347 704.517 344.939V344.803C704.517 336.6 710.464 329.833 718.736 329.833C726.802 329.833 733.09 336.531 733.09 344.939V345.076C733.09 353.279 727.143 360.046 718.872 360.046ZM749.062 362.37H752.411V330.584H764.579V327.508H752.411V324.159C752.411 318.212 754.667 315.341 759.452 315.341C761.229 315.341 762.665 315.614 764.647 316.23V313.085C763.075 312.538 761.571 312.265 759.452 312.265C756.376 312.265 753.915 313.222 752.138 314.999C750.156 316.981 749.062 320.126 749.062 324.091V327.508H744.004V330.584H749.062V362.37Z" fill="white"/>
</svg>
